/vscmnt/brussel_pixiu_data/_data_brussel/112/vsc11236/PredSimResults/SUBJ04opt3D/weighted/expIG/worker_02.mot
version=1
nRows=4
nColumns=50
inDegrees=yes
endheader
                time	         pelvis_tilt	         pelvis_list	     pelvis_rotation	           pelvis_tx	           pelvis_ty	           pelvis_tz	       hip_flexion_r	     hip_adduction_r	      hip_rotation_r	        knee_angle_r	       ankle_angle_r	         mtp_angle_r	       hip_flexion_l	     hip_adduction_l	      hip_rotation_l	        knee_angle_l	       ankle_angle_l	         mtp_angle_l	    lumbar_extension	      lumbar_bending	     lumbar_rotation	 ercspn_r/activation	 intobl_r/activation	 extobl_r/activation	    abd_r/activation	    add_r/activation	hamstrings_r/activation	bifemsh_r/activation	glut_max_r/activation	iliopsoas_r/activation	rect_fem_r/activation	  vasti_r/activation	gastroc_r/activation	 soleus_r/activation	tib_ant_r/activation	 ercspn_l/activation	 intobl_l/activation	 extobl_l/activation	    abd_l/activation	    add_l/activation	hamstrings_l/activation	bifemsh_l/activation	glut_max_l/activation	iliopsoas_l/activation	rect_fem_l/activation	  vasti_l/activation	gastroc_l/activation	 soleus_l/activation	tib_ant_l/activation	
          0.00000000	         -1.68527989	          0.33569913	          8.58650865	          0.00000000	          0.88292128	         -0.01099833	         28.42918903	         -3.03259135	        -10.28749021	        -11.65769188	          3.90849267	          0.23494512	        -12.44725609	         -0.36157588	         -7.87817821	         -7.44633999	         13.60534431	         19.34642180	        -13.69994197	         -3.75650926	         -7.77998513	          0.03774245	          0.22435356	          0.01878752	          0.00999999	          0.32108493	          0.06392955	          0.02673886	          0.01471606	          0.16124692	          0.03547036	          0.04009344	          0.00999999	          0.00999999	          0.31763076	          0.02529961	          0.00999999	          0.00999999	          0.06357132	          0.00999999	          0.02449810	          0.22718324	          0.01621119	          0.01504266	          0.00999999	          0.00999999	          0.25235723	          0.24977666	          0.00999999	
          0.01358916	         -1.78433240	          0.29569642	          8.33917526	          0.01543131	          0.88062332	         -0.01057789	         28.31683410	         -2.87198480	        -10.37774434	        -13.03156746	          3.73302819	          0.22272423	        -13.11649177	         -0.50677884	         -8.56068991	         -7.99366343	         13.39629480	         20.76617256	        -13.16722561	         -3.08626312	         -7.83856735	          0.03077283	          0.22723160	          0.01531817	          0.00999999	          0.26179258	          0.06925685	          0.02180121	          0.03412265	          0.13147066	          0.02892031	          0.03268969	          0.01226485	          0.01323747	          0.34148972	          0.02556715	          0.00999999	          0.00999999	          0.05183208	          0.00999999	          0.04345576	          0.18523101	          0.01427787	          0.01226484	          0.00999999	          0.00999999	          0.23150573	          0.25008036	          0.00999999	
          0.02717832	         -1.86830783	          0.18672926	          8.04385127	          0.03118904	          0.87854979	         -0.01006964	         28.11768155	         -2.66651757	        -10.50319406	        -14.24356477	          3.32571753	          0.21520075	        -13.70826614	         -0.73348034	         -9.28958114	         -8.73981396	         13.10210765	         22.23813512	        -12.60740195	         -2.31741279	         -7.86573240	          0.02509025	          0.19033653	          0.01248948	          0.02169851	          0.21876750	          0.07495659	          0.01777534	          0.02782148	          0.10719296	          0.02357981	          0.08784787	          0.00999999	          0.01079300	          0.36794060	          0.02525438	          0.00999999	          0.00999999	          0.04226064	          0.00999999	          0.03543111	          0.15102579	          0.01164128	          0.00999999	          0.00999999	          0.00999999	          0.18875530	          0.23989965	          0.00999999	
          0.04076747	         -1.93779920	          0.03123648	          7.69884188	          0.04712067	          0.87688700	         -0.00944283	         27.85792331	         -2.42747017	        -10.75755778	        -15.35800943	          2.91097468	          0.19472928	        -14.16798147	         -1.02801375	        -10.06078615	         -9.76403717	         12.67505665	         23.75847272	        -12.04680841	         -1.48145982	         -7.85789084	          0.02191294	          0.15518851	          0.01018314	          0.03858172	          0.19651016	          0.07611953	          0.01449290	          0.02268390	          0.08739844	          0.01922551	          0.15874352	          0.00999999	          0.00999999	          0.39250309	          0.03415852	          0.00999999	          0.00999999	          0.03445668	          0.00999999	          0.02888832	          0.12313699	          0.00999999	          0.00999999	          0.00999999	          0.00999999	          0.15389928	          0.22496686	          0.00999999	
